HIERARCHY
ROOT Hips
{
  OFFSET -0.376 25.778 -248.248
  CHANNELS 6 Xposition Yposition Zposition Zrotation Xrotation Yrotation
  JOINT LeftUpLeg
  {
    OFFSET 6.515 -6.095 1.767
    CHANNELS 6 Xposition Yposition Zposition Zrotation Xrotation Yrotation
    JOINT LeftLeg
    {
      OFFSET -0.000 -50.008 0.000
      CHANNELS 6 Xposition Yposition Zposition Zrotation Xrotation Yrotation
      JOINT LeftFoot
      {
        OFFSET 0.000 -39.147 -0.000
        CHANNELS 6 Xposition Yposition Zposition Zrotation Xrotation Yrotation
        End Site
        {
          OFFSET 0.000 -7.852 4.533
        }
      }
    }
  }
  JOINT RightUpLeg
  {
    OFFSET -6.690 -6.324 2.425
    CHANNELS 6 Xposition Yposition Zposition Zrotation Xrotation Yrotation
    JOINT RightLeg
    {
      OFFSET 0.000 -48.526 0.000
      CHANNELS 6 Xposition Yposition Zposition Zrotation Xrotation Yrotation
      JOINT RightFoot
      {
        OFFSET 0.000 -41.769 -0.000
        CHANNELS 6 Xposition Yposition Zposition Zrotation Xrotation Yrotation
        End Site
        {
          OFFSET -0.000 -7.749 4.474
        }
      }
    }
  }
  JOINT Spine
  {
    OFFSET 0.000 5.955 -5.955
    CHANNELS 6 Xposition Yposition Zposition Zrotation Xrotation Yrotation
    JOINT LeftShoulder
    {
      OFFSET -0.000 38.517 0.000
      CHANNELS 6 Xposition Yposition Zposition Zrotation Xrotation Yrotation
      JOINT LeftArm
      {
        OFFSET 17.966 0.000 -0.000
        CHANNELS 6 Xposition Yposition Zposition Zrotation Xrotation Yrotation
        JOINT LeftForeArm
        {
          OFFSET 21.035 0.000 0.000
          CHANNELS 6 Xposition Yposition Zposition Zrotation Xrotation Yrotation
          JOINT LeftHand
          {
            OFFSET 23.655 0.000 -0.000
            CHANNELS 6 Xposition Yposition Zposition Zrotation Xrotation Yrotation
            JOINT LeftHandThumb1
            {
            OFFSET 4.970 -0.620 3.390
            CHANNELS 6 Xposition Yposition Zposition Zrotation Xrotation Yrotation
              JOINT LeftHandThumb2
              {
              OFFSET 2.150 -0.000 0.000
              CHANNELS 6 Xposition Yposition Zposition Zrotation Xrotation Yrotation
                JOINT LeftHandThumb3
                {
                OFFSET 2.200 -0.000 0.000
                CHANNELS 6 Xposition Yposition Zposition Zrotation Xrotation Yrotation
                  JOINT LeftHandThumb4
                  {
                  OFFSET 1.700 -0.000 0.000
                  CHANNELS 6 Xposition Yposition Zposition Zrotation Xrotation Yrotation
                  }
                }
              }
            }
            JOINT LeftHandIndex1
            {
            OFFSET 8.730 0.680 2.070
            CHANNELS 6 Xposition Yposition Zposition Zrotation Xrotation Yrotation
              JOINT LeftHandIndex2
              {
              OFFSET 2.670 -0.000 0.000
              CHANNELS 6 Xposition Yposition Zposition Zrotation Xrotation Yrotation
                JOINT LeftHandIndex3
                {
                OFFSET 2.130 -0.000 0.000
                CHANNELS 6 Xposition Yposition Zposition Zrotation Xrotation Yrotation
                  JOINT LeftHandIndex4
                  {
                  OFFSET 1.800 -0.000 0.000
                  CHANNELS 6 Xposition Yposition Zposition Zrotation Xrotation Yrotation
                  }
                }
              }
            }
            JOINT LeftHandMiddle1
            {
            OFFSET 9.220 0.670 0.550
            CHANNELS 6 Xposition Yposition Zposition Zrotation Xrotation Yrotation
              JOINT LeftHandMiddle2
              {
              OFFSET 2.660 -0.000 0.000
              CHANNELS 6 Xposition Yposition Zposition Zrotation Xrotation Yrotation
                JOINT LeftHandMiddle3
                {
                OFFSET 2.280 -0.000 0.000
                CHANNELS 6 Xposition Yposition Zposition Zrotation Xrotation Yrotation
                  JOINT LeftHandMiddle4
                  {
                  OFFSET 1.500 -0.000 0.000
                  CHANNELS 6 Xposition Yposition Zposition Zrotation Xrotation Yrotation
                  }
                }
              }
            }
            JOINT LeftHandRing1
            {
            OFFSET 9.250 0.670 -1.130
            CHANNELS 6 Xposition Yposition Zposition Zrotation Xrotation Yrotation
              JOINT LeftHandRing2
              {
              OFFSET 2.470 -0.000 0.000
              CHANNELS 6 Xposition Yposition Zposition Zrotation Xrotation Yrotation
                JOINT LeftHandRing3
                {
                OFFSET 2.210 -0.000 0.000
                CHANNELS 6 Xposition Yposition Zposition Zrotation Xrotation Yrotation
                  JOINT LeftHandRing4
                  {
                  OFFSET 1.800 -0.000 0.000
                  CHANNELS 6 Xposition Yposition Zposition Zrotation Xrotation Yrotation
                  }
                }
              }
            }
            JOINT LeftHandPinky1
            {
            OFFSET 9.350 0.660 -2.720
            CHANNELS 6 Xposition Yposition Zposition Zrotation Xrotation Yrotation
              JOINT LeftHandPinky2
              {
              OFFSET 1.630 -0.000 0.000
              CHANNELS 6 Xposition Yposition Zposition Zrotation Xrotation Yrotation
                JOINT LeftHandPinky3
                {
                OFFSET 1.710 -0.000 0.000
                CHANNELS 6 Xposition Yposition Zposition Zrotation Xrotation Yrotation
                  JOINT LeftHandPinky4
                  {
                  OFFSET 1.800 -0.000 0.000
                  CHANNELS 6 Xposition Yposition Zposition Zrotation Xrotation Yrotation
                  }
                }
              }
            }
          }
        }
      }
    }
    JOINT RightShoulder
    {
      OFFSET -0.000 38.517 0.000
      CHANNELS 6 Xposition Yposition Zposition Zrotation Xrotation Yrotation
      JOINT RightArm
      {
        OFFSET -19.911 0.000 -0.000
        CHANNELS 6 Xposition Yposition Zposition Zrotation Xrotation Yrotation
        JOINT RightForeArm
        {
          OFFSET -22.090 0.000 0.000
          CHANNELS 6 Xposition Yposition Zposition Zrotation Xrotation Yrotation
          JOINT RightHand
          {
            OFFSET -24.152 0.000 -0.000
            CHANNELS 6 Xposition Yposition Zposition Zrotation Xrotation Yrotation
            JOINT RightHandThumb1
            {
            OFFSET -4.970 -0.620 3.390
            CHANNELS 6 Xposition Yposition Zposition Zrotation Xrotation Yrotation
              JOINT RightHandThumb2
              {
              OFFSET -2.150 0.000 0.000
              CHANNELS 6 Xposition Yposition Zposition Zrotation Xrotation Yrotation
                JOINT RightHandThumb3
                {
                OFFSET -2.200 0.000 0.000
                CHANNELS 6 Xposition Yposition Zposition Zrotation Xrotation Yrotation
                  JOINT RightHandThumb4
                  {
                  OFFSET -1.700 0.000 0.000
                  CHANNELS 6 Xposition Yposition Zposition Zrotation Xrotation Yrotation
                  }
                }
              }
            }
            JOINT RightHandIndex1
            {
            OFFSET -8.730 0.680 2.070
            CHANNELS 6 Xposition Yposition Zposition Zrotation Xrotation Yrotation
              JOINT RightHandIndex2
              {
              OFFSET -2.670 0.000 0.000
              CHANNELS 6 Xposition Yposition Zposition Zrotation Xrotation Yrotation
                JOINT RightHandIndex3
                {
                OFFSET -2.130 0.000 0.000
                CHANNELS 6 Xposition Yposition Zposition Zrotation Xrotation Yrotation
                  JOINT RightHandIndex4
                  {
                  OFFSET -1.800 0.000 0.000
                  CHANNELS 6 Xposition Yposition Zposition Zrotation Xrotation Yrotation
                  }
                }
              }
            }
            JOINT RightHandMiddle1
            {
            OFFSET -9.220 0.670 0.550
            CHANNELS 6 Xposition Yposition Zposition Zrotation Xrotation Yrotation
              JOINT RightHandMiddle2
              {
              OFFSET -2.660 0.000 0.000
              CHANNELS 6 Xposition Yposition Zposition Zrotation Xrotation Yrotation
                JOINT RightHandMiddle3
                {
                OFFSET -2.280 0.000 0.000
                CHANNELS 6 Xposition Yposition Zposition Zrotation Xrotation Yrotation
                  JOINT RightHandMiddle4
                  {
                  OFFSET -1.500 0.000 0.000
                  CHANNELS 6 Xposition Yposition Zposition Zrotation Xrotation Yrotation
                  }
                }
              }
            }
            JOINT RightHandRing1
            {
            OFFSET -9.250 0.670 -1.130
            CHANNELS 6 Xposition Yposition Zposition Zrotation Xrotation Yrotation
              JOINT RightHandRing2
              {
              OFFSET -2.470 0.000 0.000
              CHANNELS 6 Xposition Yposition Zposition Zrotation Xrotation Yrotation
                JOINT RightHandRing3
                {
                OFFSET -2.210 0.000 0.000
                CHANNELS 6 Xposition Yposition Zposition Zrotation Xrotation Yrotation
                  JOINT RightHandRing4
                  {
                  OFFSET -1.800 0.000 0.000
                  CHANNELS 6 Xposition Yposition Zposition Zrotation Xrotation Yrotation
                  }
                }
              }
            }
            JOINT RightHandPinky1
            {
            OFFSET -9.350 0.660 -2.720
            CHANNELS 6 Xposition Yposition Zposition Zrotation Xrotation Yrotation
              JOINT RightHandPinky2
              {
              OFFSET -1.630 0.000 0.000
              CHANNELS 6 Xposition Yposition Zposition Zrotation Xrotation Yrotation
                JOINT RightHandPinky3
                {
                OFFSET -1.710 0.000 0.000
                CHANNELS 6 Xposition Yposition Zposition Zrotation Xrotation Yrotation
                  JOINT RightHandPinky4
                  {
                  OFFSET -1.800 0.000 0.000
                  CHANNELS 6 Xposition Yposition Zposition Zrotation Xrotation Yrotation
                  }
                }
              }
            }
          }
        }
      }
    }
    JOINT Neck
    {
      OFFSET -0.000 38.517 0.000
      CHANNELS 6 Xposition Yposition Zposition Zrotation Xrotation Yrotation
      JOINT Head
      {
        OFFSET -0.000 16.971 -0.000
        CHANNELS 6 Xposition Yposition Zposition Zrotation Xrotation Yrotation
        End Site
        {
          OFFSET -0.000 0.068 -0.000
        }
      }
    }
  }
}
MOTION
Frames:	4
Frame Time:	0.0333333
0.4818 28.9564 -256.022 -3.24469 11.9375 3.69143 6.09246 -5.96768 2.17903 12.5499 -10.5537 1.95692 -1.49012e-06 -51.2574 4.76837e-05 0.113858 3.43415 -0.00682131 4.47035e-06 -39.6734 -4.76837e-05 0.402184 0.944125 0.353397 -6.1243 -6.11615 2.127 -8.28972 -2.50264 -0.642183 4.47035e-06 -52.9231 -2.38419e-05 5.45739 -5.90202 0.562856 -8.19564e-06 -40.653 2.38419e-05 -7.4106 -14.03 -6.1911 2.98023e-06 5.6785 -5.67849 -0.830953 -11.8153 1.55542 -7.45058e-06 38.5163 -7.15256e-05 -40.7897 1.13125e-05 -4.69953 18.0327 5.96046e-06 2.38419e-05 -11.1537 44.7934 11.5696 19.9073 -1.19209e-05 0 1.34352e-05 -6.38462e-06 -94.0404 24.1951 -3.57628e-05 3.91155e-06 2.40943 0.0938997 -32.0438 0.0062 0.0497 0.0339 0 0 0 0 0.0215 0 0 0 0 0 0.022 0 0 0 0 0 0.017 0 0 0 0 -0.0068 0.0873 0.0207 0 0 0 0 0.0267 0 0 0 0 0 0.0213 0 0 0 0 0 0.018 0 0 0 0 -0.0067 0.0922 0.0055 0 0 0 0 0.0266 0 0 0 0 0 0.0228 0 0 0 0 0 0.015 0 0 0 0 -0.0067 0.0925 -0.0113 0 0 0 0 0.0247 0 0 0 0 0 0.0221 0 0 0 0 0 0.018 0 0 0 0 -0.0066 0.0935 -0.0272 0 0 0 0 0.0163 0 0 0 0 0 0.0171 0 0 0 0 0 0.018 0 0 0 0 -7.45058e-06 38.5163 -7.15256e-05 42.7334 -5.12264e-06 4.26714 -19.856 8.9407e-06 -2.38419e-05 33.7769 24.7932 -22.2358 -22.9233 0 2.38419e-05 4.01656e-05 1.73451e-05 118.828 -24.8555 -1.19209e-05 -5.96046e-06 -16.8442 0.0932862 -1.36813 -0.0062 0.0497 0.0339 45 0 0 0 0.0215 0 0 -45 0 0 0.022 0 0 -45 0 0 0.017 0 0 0 0 0.0068 0.0873 0.0207 45 0 0 0 0.0267 0 80 0 0 0 0.0213 0 90 0 0 0 0.018 0 0 0 0 0.0067 0.0922 0.0055 45 0 0 0 0.0266 0 80 0 0 0 0.0228 0 90 0 0 0 0.015 0 0 0 0 0.0067 0.0925 -0.0113 45 0 0 0 0.0247 0 80 0 0 0 0.0221 0 90 0 0 0 0.018 0 0 0 0 0.0066 0.0935 -0.0272 45 0 0 0 0.0163 0 80 0 0 0 0.0171 0 90 0 0 0 0.018 0 0 0 0 -7.45058e-06 38.5163 -7.15256e-05 14.0078 4.25191 -1.05964 0 15.7767 -2.38419e-05 9.81839e-06 -1.10991e-05 4.26887e-07 
3.92197 28.5435 -255.803 -1.05333 10.9775 -0.319279 6.35305 -6.12405 1.63879 9.4039 -8.07288 5.8879 5.96046e-06 -49.9448 2.38419e-05 -0.825927 2.45656 0.0354044 -2.98023e-06 -40.0862 -2.38419e-05 0.882911 1.59282 0.551263 -6.27531 -6.30221 2.67172 -11.7161 -1.54042 4.44759 -2.98023e-06 -53.545 -2.38419e-05 3.92791 -7.27235 0.497986 5.96046e-06 -40.1079 2.38419e-05 -5.88609 -20.3019 -5.41435 1.86265e-07 5.81469 -5.81467 -0.944632 -11.228 3.15215 0 38.5163 4.76837e-05 -42.1847 1.04587e-05 -4.49274 17.3527 0 -2.38419e-05 -11.9955 42.1914 16.433 20.1747 2.38419e-05 -4.76837e-05 0.000358714 -6.87423e-06 -91.6353 22.7025 0 1.19209e-05 3.63357 -0.00857479 -31.3124 0.0062 0.0497 0.0339 0 0 0 0 0.0215 0 0 0 0 0 0.022 0 0 0 0 0 0.017 0 0 0 0 -0.0068 0.0873 0.0207 0 0 0 0 0.0267 0 0 0 0 0 0.0213 0 0 0 0 0 0.018 0 0 0 0 -0.0067 0.0922 0.0055 0 0 0 0 0.0266 0 0 0 0 0 0.0228 0 0 0 0 0 0.015 0 0 0 0 -0.0067 0.0925 -0.0113 0 0 0 0 0.0247 0 0 0 0 0 0.0221 0 0 0 0 0 0.018 0 0 0 0 -0.0066 0.0935 -0.0272 0 0 0 0 0.0163 0 0 0 0 0 0.0171 0 0 0 0 0 0.018 0 0 0 0 0 38.5163 4.76837e-05 42.958 -5.12264e-06 3.6422 -21.3975 -1.78814e-05 2.38419e-05 34.1282 26.4881 -14.3029 -21.3876 -1.19209e-05 0 -2.89045e-06 1.09831e-05 119.489 -24.1967 4.76837e-05 0 -21.1576 0.565853 -10.0148 -0.0062 0.0497 0.0339 26.2917 0 0 0 0.0215 0 0 -26.2917 0 0 0.022 0 0 -26.2917 0 0 0.017 0 0 0 0 0.0068 0.0873 0.0207 26.2917 0 0 0 0.0267 0 46.7408 0 0 0 0.0213 0 52.5834 0 0 0 0.018 0 0 0 0 0.0067 0.0922 0.0055 26.2917 0 0 0 0.0266 0 46.7408 0 0 0 0.0228 0 52.5834 0 0 0 0.015 0 0 0 0 0.0067 0.0925 -0.0113 26.2917 0 0 0 0.0247 0 46.7408 0 0 0 0.0221 0 52.5834 0 0 0 0.018 0 0 0 0 0.0066 0.0935 -0.0272 26.2917 0 0 0 0.0163 0 46.7408 0 0 0 0.0171 0 52.5834 0 0 0 0.018 0 0 0 0 0 38.5163 4.76837e-05 14.8712 5.12815 -1.35966 -2.98023e-06 16.5101 -2.38419e-05 8.23091e-06 -1.02453e-05 2.13443e-07 
3.92197 28.5435 -255.803 -1.05333 10.9775 -0.319279 6.35305 -6.12405 1.63879 9.4039 -8.07288 5.8879 5.96046e-06 -49.9448 2.38419e-05 -0.825927 2.45656 0.0354044 -2.98023e-06 -40.0862 -2.38419e-05 0.882911 1.59282 0.551263 -6.27531 -6.30221 2.67172 -11.7161 -1.54042 4.44759 -2.98023e-06 -53.545 -2.38419e-05 3.92791 -7.27235 0.497986 5.96046e-06 -40.1079 2.38419e-05 -5.88609 -20.3019 -5.41435 1.86265e-07 5.81469 -5.81467 -0.944632 -11.228 3.15215 0 38.5163 4.76837e-05 -42.1847 1.04587e-05 -4.49274 17.3527 0 -2.38419e-05 -11.9955 42.1914 16.433 20.1747 2.38419e-05 -4.76837e-05 0.000358714 -6.87423e-06 -91.6353 22.7025 0 1.19209e-05 3.63357 -0.00857479 -31.3124 0.0062 0.0497 0.0339 0 0 0 0 0.0215 0 0 0 0 0 0.022 0 0 0 0 0 0.017 0 0 0 0 -0.0068 0.0873 0.0207 0 0 0 0 0.0267 0 0 0 0 0 0.0213 0 0 0 0 0 0.018 0 0 0 0 -0.0067 0.0922 0.0055 0 0 0 0 0.0266 0 0 0 0 0 0.0228 0 0 0 0 0 0.015 0 0 0 0 -0.0067 0.0925 -0.0113 0 0 0 0 0.0247 0 0 0 0 0 0.0221 0 0 0 0 0 0.018 0 0 0 0 -0.0066 0.0935 -0.0272 0 0 0 0 0.0163 0 0 0 0 0 0.0171 0 0 0 0 0 0.018 0 0 0 0 0 38.5163 4.76837e-05 42.958 -5.12264e-06 3.6422 -21.3975 -1.78814e-05 2.38419e-05 34.1282 26.4881 -14.3029 -21.3876 -1.19209e-05 0 -2.89045e-06 1.09831e-05 119.489 -24.1967 4.76837e-05 0 -21.1576 0.565853 -10.0148 -0.0062 0.0497 0.0339 26.2917 0 0 0 0.0215 0 0 -26.2917 0 0 0.022 0 0 -26.2917 0 0 0.017 0 0 0 0 0.0068 0.0873 0.0207 26.2917 0 0 0 0.0267 0 46.7408 0 0 0 0.0213 0 52.5834 0 0 0 0.018 0 0 0 0 0.0067 0.0922 0.0055 26.2917 0 0 0 0.0266 0 46.7408 0 0 0 0.0228 0 52.5834 0 0 0 0.015 0 0 0 0 0.0067 0.0925 -0.0113 26.2917 0 0 0 0.0247 0 46.7408 0 0 0 0.0221 0 52.5834 0 0 0 0.018 0 0 0 0 0.0066 0.0935 -0.0272 26.2917 0 0 0 0.0163 0 46.7408 0 0 0 0.0171 0 52.5834 0 0 0 0.018 0 0 0 0 0 38.5163 4.76837e-05 14.8712 5.12815 -1.35966 -2.98023e-06 16.5101 -2.38419e-05 8.23091e-06 -1.02453e-05 2.13443e-07 
6.14992 28.0414 -255.697 -0.15806 10.4971 0.369389 6.62611 -6.03968 1.62702 7.6905 -7.49842 5.01025 -5.96046e-06 -47.9678 7.15256e-05 -2.29732 2.42518 0.0972628 1.19209e-05 -41.4134 2.38419e-05 1.44454 1.67634 0.81485 -6.68811 -6.37465 2.60687 -13.1144 -0.817299 4.13529 5.96046e-06 -53.3021 7.15256e-05 2.51563 -7.97367 0.349184 0 -40.6737 2.38419e-05 -4.72195 -24.1214 -4.58233 7.45058e-07 5.93366 -5.93371 -1.22837 -10.8904 2.64987 -1.49012e-06 38.5163 -2.38419e-05 -39.5927 9.39151e-06 -4.96919 17.601 -5.96046e-06 0 -17.2895 41.88 19.9135 19.8582 3.57628e-05 -2.38419e-05 4.36684e-08 -1.02451e-05 -89.6298 22.1161 -1.19209e-05 -1.78814e-05 4.7545 -0.127369 -28.7436 0.0062 0.0497 0.0339 0 0 0 0 0.0215 0 0 0 0 0 0.022 0 0 0 0 0 0.017 0 0 0 0 -0.0068 0.0873 0.0207 0 0 0 0 0.0267 0 0 0 0 0 0.0213 0 0 0 0 0 0.018 0 0 0 0 -0.0067 0.0922 0.0055 0 0 0 0 0.0266 0 0 0 0 0 0.0228 0 0 0 0 0 0.015 0 0 0 0 -0.0067 0.0925 -0.0113 0 0 0 0 0.0247 0 0 0 0 0 0.0221 0 0 0 0 0 0.018 0 0 0 0 -0.0066 0.0935 -0.0272 0 0 0 0 0.0163 0 0 0 0 0 0.0171 0 0 0 0 0 0.018 0 0 0 0 -1.49012e-06 38.5163 -2.38419e-05 42.5365 -5.12264e-06 4.23864 -20.6276 0 0 36.2663 29.1234 -11.8073 -21.5261 -2.38419e-05 2.38419e-05 1.06731e-05 1.11525e-05 119.99 -25.098 4.76837e-05 1.19209e-05 -30.2951 0.981217 -17.0252 -0.0062 0.0497 0.0339 17.8332 0 0 0 0.0215 0 0 -17.8332 0 0 0.022 0 0 -17.8332 0 0 0.017 0 0 0 0 0.0068 0.0873 0.0207 17.8332 0 0 0 0.0267 0 31.7034 0 0 0 0.0213 0 35.6664 0 0 0 0.018 0 0 0 0 0.0067 0.0922 0.0055 17.8332 0 0 0 0.0266 0 31.7034 0 0 0 0.0228 0 35.6664 0 0 0 0.015 0 0 0 0 0.0067 0.0925 -0.0113 17.8332 0 0 0 0.0247 0 31.7034 0 0 0 0.0221 0 35.6664 0 0 0 0.018 0 0 0 0 0.0066 0.0935 -0.0272 17.8332 0 0 0 0.0163 0 31.7034 0 0 0 0.0171 0 35.6664 0 0 0 0.018 0 0 0 0 -1.49012e-06 38.5163 -2.38419e-05 12.6922 4.88678 -1.09911 -1.19209e-05 16.942 2.38419e-05 1.10991e-05 -9.39151e-06 -2.13443e-07 
